<?xml version="1.0" standalone="no"?>
<!DOCTYPE svg PUBLIC "-//W3C//DTD SVG 20010904//EN"
 "http://www.w3.org/TR/2001/REC-SVG-20010904/DTD/svg10.dtd">
<svg version="1.0" xmlns="http://www.w3.org/2000/svg"
 width="500.000000pt" height="500.000000pt" viewBox="0 0 500.000000 500.000000"
 preserveAspectRatio="xMidYMid meet">

<g transform="translate(0.000000,500.000000) scale(0.100000,-0.100000)"
fill="#FFA500" stroke="none">
<path d="M2170 4674 c-693 -64 -1290 -427 -1655 -1009 -151 -240 -256 -530
-299 -826 -18 -123 -21 -402 -6 -529 89 -731 529 -1354 1184 -1674 297 -146
600 -216 933 -216 746 0 1437 388 1822 1023 281 462 373 996 265 1535 -125
626 -551 1181 -1129 1470 -295 148 -577 218 -905 226 -91 2 -185 2 -210 0z
m415 -119 c437 -57 829 -246 1144 -550 182 -176 307 -347 417 -570 316 -644
266 -1410 -131 -2005 -380 -569 -1005 -904 -1690 -904 -776 1 -1473 437 -1815
1137 -121 249 -181 473 -201 763 -41 565 169 1127 573 1535 175 177 342 298
563 405 194 94 446 170 647 193 122 14 369 12 493 -4z"/>
<path d="M2195 4128 c-129 -7 -246 -31 -392 -79 -92 -30 -93 -31 -105 -72 -20
-68 -17 -272 6 -337 40 -116 87 -193 166 -272 249 -250 639 -249 890 2 131
130 198 303 186 475 -3 44 -11 100 -19 125 -12 42 -17 47 -72 69 -178 71 -416
103 -660 89z"/>
<path d="M1012 3455 c-119 -171 -206 -372 -253 -587 -20 -87 -23 -133 -24
-293 l0 -190 92 -46 c250 -126 535 -79 733 120 125 125 185 273 184 446 -4
335 -256 603 -594 631 l-77 7 -61 -88z"/>
<path d="M3385 3524 c-330 -70 -554 -401 -494 -730 73 -399 489 -628 866 -477
35 14 81 39 104 55 l41 30 -5 181 c-7 253 -45 423 -146 640 -39 86 -150 264
-185 300 -21 21 -82 21 -181 1z"/>
<path d="M2280 3027 c-37 -19 -52 -57 -39 -96 29 -81 149 -60 149 26 0 59 -59
97 -110 70z"/>
<path d="M2245 2783 c-74 -39 -105 -88 -105 -166 0 -150 174 -228 291 -130 72
61 80 182 16 251 -53 58 -142 77 -202 45z"/>
<path d="M1925 2675 c-70 -69 31 -182 103 -115 28 27 37 62 21 92 -28 53 -84
64 -124 23z"/>
<path d="M2595 2675 c-65 -64 14 -168 94 -125 31 16 46 65 31 100 -23 55 -84
67 -125 25z"/>
<path d="M2250 2328 c-20 -34 -19 -55 6 -95 11 -18 24 -23 54 -23 49 0 80 30
80 77 0 46 -30 73 -80 73 -35 0 -43 -5 -60 -32z"/>
<path d="M1385 2141 c-169 -48 -318 -170 -393 -320 -49 -96 -50 -87 46 -217
195 -264 466 -459 780 -563 67 -22 98 -28 111 -22 10 6 47 41 83 80 119 126
187 304 174 459 -15 190 -91 342 -230 460 -61 52 -190 116 -264 131 -80 16
-237 12 -307 -8z"/>
<path d="M2895 2141 c-176 -50 -321 -172 -398 -332 -52 -109 -67 -170 -67
-278 0 -184 88 -374 225 -487 l47 -38 101 33 c336 109 631 330 827 619 l43 63
-41 82 c-46 92 -92 152 -166 215 -61 52 -190 116 -264 131 -80 16 -237 12
-307 -8z"/>
<path d="M4133 1129 c-73 -92 -75 -107 -43 -234 80 -312 334 -504 723 -546 54
-6 100 -9 101 -7 5 4 83 602 80 606 -1 2 -25 -9 -54 -23 -80 -41 -193 -66
-300 -68 -84 -2 -101 1 -150 24 -95 46 -186 140 -260 272 -17 31 -33 57 -33
56 -1 0 -30 -36 -64 -80z"/>
</g>
</svg>
